<?xml version="1.0" encoding="UTF-8" standalone="no" ?>
<!DOCTYPE svg PUBLIC "-//W3C//DTD SVG 1.1//EN" "http://www.w3.org/Graphics/SVG/1.1/DTD/svg11.dtd">
<svg xmlns="http://www.w3.org/2000/svg" xmlns:xlink="http://www.w3.org/1999/xlink" version="1.1" width="200" height="75" viewBox="0 0 200 75" xml:space="preserve">
<desc>Created with Fabric.js 4.6.0</desc>
<defs>
</defs>
<g transform="matrix(0.89 0 0 0.89 100 115.84)" id="c84Mgj6ognS_GJqqfX0AP"  >
<g style="" vector-effect="non-scaling-stroke"   >
		<g transform="matrix(1.33 0 0 1.33 -55.67 -90.48)" id="WEzGgZ2jrkn_NqfyJ8HB8"  >
<path style="stroke: none; stroke-width: 1; stroke-dasharray: none; stroke-linecap: butt; stroke-dashoffset: 0; stroke-linejoin: miter; stroke-miterlimit: 4; fill: rgb(224,172,57); fill-rule: nonzero; opacity: 1;" vector-effect="non-scaling-stroke"  transform=" translate(-6.15, 19.41)" d="M 11.929688 -31.414062 C 12.449219 -31.828125 12.503906 -32.664062 11.410156 -32.664062 L 0.886719 -32.664062 C -0.207031 -32.664062 -0.15625 -31.828125 0.363281 -31.414062 C 2.292969 -29.902344 2.5 -23.078125 2.5 -19.429688 C 2.5 -15.785156 2.292969 -8.910156 0.363281 -7.449219 C -0.15625 -7.03125 -0.207031 -6.148438 0.886719 -6.148438 L 11.410156 -6.148438 C 12.503906 -6.148438 12.449219 -7.03125 11.929688 -7.449219 C 10.003906 -8.910156 9.792969 -15.785156 9.792969 -19.429688 C 9.792969 -23.078125 10.003906 -29.902344 11.929688 -31.414062 Z M 11.929688 -31.414062" stroke-linecap="round" />
</g>
		<g transform="matrix(1.33 0 0 1.33 -32.21 -85.65)" id="JKTokLRLIDHNI5Yfx0-wt"  >
<path style="stroke: none; stroke-width: 1; stroke-dasharray: none; stroke-linecap: butt; stroke-dashoffset: 0; stroke-linejoin: miter; stroke-miterlimit: 4; fill: rgb(52,120,85); fill-rule: nonzero; opacity: 1;" vector-effect="non-scaling-stroke"  transform=" translate(-10.46, 15.79)" d="M 15.835938 -25.421875 C 13.230469 -25.421875 10.835938 -22.453125 9.636719 -20.683594 L 10.054688 -24.066406 C 10.160156 -24.746094 10.679688 -25.578125 9.585938 -25.371094 C 7.605469 -24.953125 5.523438 -21.566406 0.519531 -21.566406 C 0 -21.566406 -0.207031 -20.941406 0.3125 -20.527344 C 2.136719 -19.117188 2.449219 -17.972656 2.449219 -16.046875 L 2.449219 -11.667969 C 2.449219 -9.742188 2.136719 -8.59375 0.3125 -7.242188 C -0.207031 -6.824219 0 -6.148438 0.519531 -6.148438 L 10.679688 -6.148438 C 11.773438 -6.148438 11.773438 -7.03125 11.199219 -7.449219 C 9.742188 -8.542969 9.011719 -12.242188 9.378906 -18.023438 C 10.367188 -19.898438 12.136719 -21.828125 13.386719 -21.828125 C 14.324219 -21.828125 13.855469 -20.785156 13.648438 -19.640625 C 13.074219 -15.578125 21.828125 -17.191406 20.839844 -22.140625 C 20.421875 -24.328125 17.867188 -25.421875 15.835938 -25.421875 Z M 15.835938 -25.421875" stroke-linecap="round" />
</g>
		<g transform="matrix(1.33 0 0 1.33 -9.35 -90.48)" id="K6GN1-mnB9HMtd4DdZ-gO"  >
<path style="stroke: none; stroke-width: 1; stroke-dasharray: none; stroke-linecap: butt; stroke-dashoffset: 0; stroke-linejoin: miter; stroke-miterlimit: 4; fill: rgb(212,105,108); fill-rule: nonzero; opacity: 1;" vector-effect="non-scaling-stroke"  transform=" translate(-5.8, 19.41)" d="M 10.679688 -6.148438 C 11.773438 -6.148438 11.773438 -7.03125 11.199219 -7.449219 C 9.273438 -8.910156 8.648438 -14.796875 10.054688 -24.066406 C 10.160156 -24.746094 10.679688 -25.578125 9.585938 -25.371094 C 7.605469 -24.953125 5.523438 -21.566406 0.519531 -21.566406 C 0 -21.566406 -0.207031 -20.941406 0.3125 -20.527344 C 2.136719 -19.117188 2.449219 -17.972656 2.449219 -16.046875 L 2.449219 -11.667969 C 2.449219 -9.742188 2.136719 -8.59375 0.3125 -7.242188 C -0.207031 -6.824219 0 -6.148438 0.519531 -6.148438 Z M 3.90625 -25.058594 C 6.042969 -25.058594 8.125 -26.777344 8.59375 -28.859375 C 9.066406 -30.996094 7.710938 -32.664062 5.625 -32.664062 C 3.492188 -32.664062 1.40625 -30.996094 0.9375 -28.859375 C 0.46875 -26.777344 1.824219 -25.058594 3.90625 -25.058594 Z M 3.90625 -25.058594" stroke-linecap="round" />
</g>
		<g transform="matrix(1.33 0 0 1.33 15.68 -90.51)" id="ArKEuzzJh27MjZLCmLQja"  >
<path style="stroke: none; stroke-width: 1; stroke-dasharray: none; stroke-linecap: butt; stroke-dashoffset: 0; stroke-linejoin: miter; stroke-miterlimit: 4; fill: rgb(224,134,57); fill-rule: nonzero; opacity: 1;" vector-effect="non-scaling-stroke"  transform=" translate(-11.71, 19.43)" d="M 23.078125 -7.242188 C 21.308594 -8.59375 20.941406 -9.742188 20.941406 -11.667969 L 20.941406 -22.347656 C 20.941406 -25.785156 21.203125 -27.507812 21.933594 -31.359375 C 22.035156 -32.039062 22.503906 -32.925781 21.410156 -32.664062 C 19.429688 -32.300781 17.140625 -28.859375 12.136719 -28.859375 C 11.617188 -28.859375 11.410156 -28.234375 11.980469 -27.820312 C 12.710938 -27.246094 13.230469 -26.257812 13.542969 -24.953125 C 12.554688 -25.265625 11.511719 -25.421875 10.417969 -25.421875 C 4.636719 -25.421875 0 -21.097656 0 -15.785156 C 0 -10.472656 4.636719 -6.148438 10.417969 -6.148438 L 22.921875 -6.148438 C 23.441406 -6.148438 23.652344 -6.824219 23.078125 -7.242188 Z M 7.398438 -15.785156 C 7.398438 -20.316406 8.753906 -23.964844 10.417969 -23.964844 C 12.035156 -23.964844 13.386719 -20.316406 13.386719 -15.785156 C 13.386719 -11.304688 12.035156 -7.605469 10.417969 -7.605469 C 8.753906 -7.605469 7.398438 -11.304688 7.398438 -15.785156 Z M 7.398438 -15.785156" stroke-linecap="round" />
</g>
		<g transform="matrix(1.33 0 0 1.33 47.19 -85.65)" id="XZrZ5LLiJjXil3Ea7e1Dn"  >
<path style="stroke: none; stroke-width: 1; stroke-dasharray: none; stroke-linecap: butt; stroke-dashoffset: 0; stroke-linejoin: miter; stroke-miterlimit: 4; fill: rgb(11,52,151); fill-rule: nonzero; opacity: 1;" vector-effect="non-scaling-stroke"  transform=" translate(-10.6, 15.79)" d="M 20.890625 -7.242188 C 19.066406 -8.59375 18.753906 -9.742188 18.753906 -11.667969 L 18.753906 -15.941406 C 18.753906 -21.566406 14.535156 -25.421875 8.960938 -25.421875 C 4.167969 -25.421875 1.5625 -23.027344 1.5625 -20.785156 C 1.5625 -17.765625 9.378906 -18.804688 8.28125 -21.359375 C 7.65625 -22.714844 7.65625 -23.964844 8.4375 -23.964844 C 10.316406 -23.964844 11.460938 -20.527344 11.460938 -17.503906 L 11.460938 -15.941406 C 10.316406 -17.453125 8.4375 -18.441406 6.355469 -18.441406 C 2.863281 -18.441406 0 -15.679688 0 -12.292969 C 0 -8.910156 2.863281 -6.148438 6.355469 -6.148438 C 8.4375 -6.148438 10.316406 -7.136719 11.460938 -8.648438 C 11.460938 -8.648438 12.554688 -6.148438 15.367188 -6.148438 L 20.683594 -6.148438 C 21.253906 -6.148438 21.410156 -6.824219 20.890625 -7.242188 Z M 8.648438 -8.960938 C 7.242188 -8.960938 6.09375 -10.472656 6.09375 -12.292969 C 6.09375 -14.117188 7.242188 -15.628906 8.648438 -15.628906 C 10.105469 -15.628906 11.253906 -14.117188 11.253906 -12.292969 C 11.253906 -10.472656 10.105469 -8.960938 8.648438 -8.960938 Z M 8.648438 -8.960938" stroke-linecap="round" />
</g>
		<g transform="matrix(1.33 0 0 1.33 -56.22 -61.69)" id="LwfMqC-AgWcSHN8wqJtfO"  >
<path style="stroke: none; stroke-width: 1; stroke-dasharray: none; stroke-linecap: butt; stroke-dashoffset: 0; stroke-linejoin: miter; stroke-miterlimit: 4; fill: rgb(11,52,151); fill-rule: nonzero; opacity: 1;" vector-effect="non-scaling-stroke"  transform=" translate(-3.36, 4.05)" d="M 3.234375 -1.140625 C 3.671875 -1.140625 4 -1.234375 4.21875 -1.421875 C 4.445312 -1.609375 4.5625 -1.875 4.5625 -2.21875 C 4.5625 -2.53125 4.46875 -2.78125 4.28125 -2.96875 C 4.101562 -3.15625 3.773438 -3.320312 3.296875 -3.46875 C 2.347656 -3.75 1.660156 -4.09375 1.234375 -4.5 C 0.804688 -4.914062 0.59375 -5.421875 0.59375 -6.015625 C 0.59375 -6.679688 0.835938 -7.210938 1.328125 -7.609375 C 1.828125 -8.015625 2.519531 -8.21875 3.40625 -8.21875 C 4.070312 -8.21875 4.722656 -8.117188 5.359375 -7.921875 C 5.523438 -7.867188 5.644531 -7.757812 5.71875 -7.59375 C 5.800781 -7.4375 5.820312 -7.269531 5.78125 -7.09375 C 5.738281 -6.9375 5.640625 -6.820312 5.484375 -6.75 C 5.335938 -6.6875 5.1875 -6.679688 5.03125 -6.734375 C 4.519531 -6.910156 3.992188 -7 3.453125 -7 C 3.035156 -7 2.710938 -6.910156 2.484375 -6.734375 C 2.265625 -6.554688 2.15625 -6.316406 2.15625 -6.015625 C 2.15625 -5.492188 2.535156 -5.125 3.296875 -4.90625 C 4.335938 -4.625 5.066406 -4.273438 5.484375 -3.859375 C 5.910156 -3.441406 6.125 -2.90625 6.125 -2.25 C 6.125 -1.476562 5.875 -0.890625 5.375 -0.484375 C 4.875 -0.0859375 4.144531 0.109375 3.1875 0.109375 C 2.5 0.109375 1.816406 -0.0351562 1.140625 -0.328125 C 0.972656 -0.398438 0.851562 -0.519531 0.78125 -0.6875 C 0.707031 -0.851562 0.703125 -1.023438 0.765625 -1.203125 L 0.78125 -1.25 C 0.832031 -1.40625 0.929688 -1.507812 1.078125 -1.5625 C 1.234375 -1.613281 1.378906 -1.601562 1.515625 -1.53125 C 2.078125 -1.269531 2.648438 -1.140625 3.234375 -1.140625 Z M 3.234375 -1.140625" stroke-linecap="round" />
</g>
		<g transform="matrix(1.33 0 0 1.33 -45.83 -61.69)" id="Jdcdy17urDpANjL5vICjo"  >
<path style="stroke: none; stroke-width: 1; stroke-dasharray: none; stroke-linecap: butt; stroke-dashoffset: 0; stroke-linejoin: miter; stroke-miterlimit: 4; fill: rgb(11,52,151); fill-rule: nonzero; opacity: 1;" vector-effect="non-scaling-stroke"  transform=" translate(-3.39, 4.05)" d="M 5.71875 -1.0625 C 5.84375 -0.945312 5.90625 -0.800781 5.90625 -0.625 C 5.90625 -0.457031 5.84375 -0.3125 5.71875 -0.1875 C 5.601562 -0.0625 5.457031 0 5.28125 0 L 1.515625 0 C 1.335938 0 1.1875 -0.0625 1.0625 -0.1875 C 0.9375 -0.3125 0.875 -0.460938 0.875 -0.640625 L 0.875 -7.484375 C 0.875 -7.648438 0.9375 -7.796875 1.0625 -7.921875 C 1.1875 -8.046875 1.335938 -8.109375 1.515625 -8.109375 L 5.28125 -8.109375 C 5.457031 -8.109375 5.601562 -8.046875 5.71875 -7.921875 C 5.84375 -7.796875 5.90625 -7.644531 5.90625 -7.46875 C 5.90625 -7.300781 5.84375 -7.15625 5.71875 -7.03125 C 5.601562 -6.914062 5.457031 -6.859375 5.28125 -6.859375 L 2.53125 -6.859375 C 2.46875 -6.859375 2.4375 -6.820312 2.4375 -6.75 L 2.4375 -4.96875 C 2.4375 -4.894531 2.46875 -4.859375 2.53125 -4.859375 L 5.09375 -4.859375 C 5.257812 -4.859375 5.398438 -4.800781 5.515625 -4.6875 C 5.628906 -4.570312 5.6875 -4.429688 5.6875 -4.265625 C 5.6875 -4.097656 5.628906 -3.957031 5.515625 -3.84375 C 5.410156 -3.726562 5.269531 -3.671875 5.09375 -3.671875 L 2.53125 -3.671875 C 2.46875 -3.671875 2.4375 -3.640625 2.4375 -3.578125 L 2.4375 -1.359375 C 2.4375 -1.285156 2.46875 -1.25 2.53125 -1.25 L 5.28125 -1.25 C 5.457031 -1.25 5.601562 -1.1875 5.71875 -1.0625 Z M 5.71875 -1.0625" stroke-linecap="round" />
</g>
		<g transform="matrix(1.33 0 0 1.33 -35.19 -61.69)" id="guDRxGK7CxW6WXfWgkvBc"  >
<path style="stroke: none; stroke-width: 1; stroke-dasharray: none; stroke-linecap: butt; stroke-dashoffset: 0; stroke-linejoin: miter; stroke-miterlimit: 4; fill: rgb(11,52,151); fill-rule: nonzero; opacity: 1;" vector-effect="non-scaling-stroke"  transform=" translate(-3.67, 4.05)" d="M 4.5625 0.109375 C 3.300781 0.109375 2.285156 -0.265625 1.515625 -1.015625 C 0.753906 -1.765625 0.375 -2.78125 0.375 -4.0625 C 0.375 -5.34375 0.75 -6.351562 1.5 -7.09375 C 2.25 -7.84375 3.269531 -8.21875 4.5625 -8.21875 C 5.300781 -8.21875 5.988281 -8.070312 6.625 -7.78125 C 6.78125 -7.707031 6.882812 -7.585938 6.9375 -7.421875 C 6.988281 -7.253906 6.984375 -7.085938 6.921875 -6.921875 C 6.859375 -6.773438 6.75 -6.675781 6.59375 -6.625 C 6.4375 -6.570312 6.289062 -6.578125 6.15625 -6.640625 C 5.695312 -6.859375 5.210938 -6.96875 4.703125 -6.96875 C 3.867188 -6.96875 3.203125 -6.707031 2.703125 -6.1875 C 2.210938 -5.664062 1.96875 -4.957031 1.96875 -4.0625 C 1.96875 -3.164062 2.222656 -2.453125 2.734375 -1.921875 C 3.242188 -1.398438 3.898438 -1.140625 4.703125 -1.140625 C 5.210938 -1.140625 5.695312 -1.25 6.15625 -1.46875 C 6.289062 -1.53125 6.4375 -1.535156 6.59375 -1.484375 C 6.75 -1.429688 6.859375 -1.332031 6.921875 -1.1875 C 6.984375 -1.019531 6.988281 -0.851562 6.9375 -0.6875 C 6.882812 -0.519531 6.78125 -0.398438 6.625 -0.328125 C 5.988281 -0.0351562 5.300781 0.109375 4.5625 0.109375 Z M 4.5625 0.109375" stroke-linecap="round" />
</g>
		<g transform="matrix(1.33 0 0 1.33 -22.63 -61.69)" id="vJr6LMqA_DEG8kbH2wMdd"  >
<path style="stroke: none; stroke-width: 1; stroke-dasharray: none; stroke-linecap: butt; stroke-dashoffset: 0; stroke-linejoin: miter; stroke-miterlimit: 4; fill: rgb(11,52,151); fill-rule: nonzero; opacity: 1;" vector-effect="non-scaling-stroke"  transform=" translate(-4.43, 4.05)" d="M 6.234375 -6.171875 C 5.785156 -6.679688 5.179688 -6.9375 4.421875 -6.9375 C 3.671875 -6.9375 3.070312 -6.679688 2.625 -6.171875 C 2.1875 -5.671875 1.96875 -4.960938 1.96875 -4.046875 C 1.96875 -3.140625 2.1875 -2.429688 2.625 -1.921875 C 3.070312 -1.421875 3.671875 -1.171875 4.421875 -1.171875 C 5.179688 -1.171875 5.785156 -1.421875 6.234375 -1.921875 C 6.679688 -2.429688 6.90625 -3.140625 6.90625 -4.046875 C 6.90625 -4.960938 6.679688 -5.671875 6.234375 -6.171875 Z M 7.375 -1.015625 C 6.644531 -0.265625 5.664062 0.109375 4.4375 0.109375 C 3.207031 0.109375 2.222656 -0.265625 1.484375 -1.015625 C 0.742188 -1.765625 0.375 -2.773438 0.375 -4.046875 C 0.375 -5.328125 0.742188 -6.34375 1.484375 -7.09375 C 2.222656 -7.84375 3.207031 -8.21875 4.4375 -8.21875 C 5.664062 -8.21875 6.644531 -7.84375 7.375 -7.09375 C 8.113281 -6.34375 8.484375 -5.328125 8.484375 -4.046875 C 8.484375 -2.773438 8.113281 -1.765625 7.375 -1.015625 Z M 7.375 -1.015625" stroke-linecap="round" />
</g>
		<g transform="matrix(1.33 0 0 1.33 -9.92 -61.69)" id="6Iy6dSdzRKl-COTVWH4mV"  >
<path style="stroke: none; stroke-width: 1; stroke-dasharray: none; stroke-linecap: butt; stroke-dashoffset: 0; stroke-linejoin: miter; stroke-miterlimit: 4; fill: rgb(11,52,151); fill-rule: nonzero; opacity: 1;" vector-effect="non-scaling-stroke"  transform=" translate(-4.08, 4.05)" d="M 2.40625 -5.515625 L 2.40625 -0.640625 C 2.40625 -0.460938 2.335938 -0.3125 2.203125 -0.1875 C 2.078125 -0.0625 1.929688 0 1.765625 0 L 1.515625 0 C 1.335938 0 1.1875 -0.0625 1.0625 -0.1875 C 0.9375 -0.3125 0.875 -0.460938 0.875 -0.640625 L 0.875 -7.484375 C 0.875 -7.648438 0.9375 -7.796875 1.0625 -7.921875 C 1.1875 -8.046875 1.335938 -8.109375 1.515625 -8.109375 L 1.765625 -8.109375 C 2.191406 -8.109375 2.507812 -7.929688 2.71875 -7.578125 L 5.734375 -2.59375 C 5.734375 -2.59375 5.738281 -2.59375 5.75 -2.59375 C 5.757812 -2.59375 5.765625 -2.59375 5.765625 -2.59375 L 5.765625 -7.484375 C 5.765625 -7.648438 5.820312 -7.796875 5.9375 -7.921875 C 6.0625 -8.046875 6.210938 -8.109375 6.390625 -8.109375 L 6.65625 -8.109375 C 6.820312 -8.109375 6.96875 -8.046875 7.09375 -7.921875 C 7.21875 -7.796875 7.28125 -7.648438 7.28125 -7.484375 L 7.28125 -0.640625 C 7.28125 -0.460938 7.21875 -0.3125 7.09375 -0.1875 C 6.96875 -0.0625 6.820312 0 6.65625 0 L 6.390625 0 C 5.960938 0 5.644531 -0.175781 5.4375 -0.53125 L 2.4375 -5.515625 C 2.4375 -5.515625 2.425781 -5.515625 2.40625 -5.515625 Z M 2.40625 -5.515625" stroke-linecap="round" />
</g>
		<g transform="matrix(1.33 0 0 1.33 2.37 -61.69)" id="Y-3nDahUSTvpqitqjZy3Q"  >
<path style="stroke: none; stroke-width: 1; stroke-dasharray: none; stroke-linecap: butt; stroke-dashoffset: 0; stroke-linejoin: miter; stroke-miterlimit: 4; fill: rgb(11,52,151); fill-rule: nonzero; opacity: 1;" vector-effect="non-scaling-stroke"  transform=" translate(-4.12, 4.05)" d="M 2.40625 -6.828125 L 2.40625 -1.28125 C 2.40625 -1.226562 2.4375 -1.195312 2.5 -1.1875 C 2.738281 -1.15625 2.960938 -1.140625 3.171875 -1.140625 C 4.078125 -1.140625 4.753906 -1.382812 5.203125 -1.875 C 5.648438 -2.375 5.875 -3.140625 5.875 -4.171875 C 5.875 -6.046875 4.972656 -6.984375 3.171875 -6.984375 C 2.960938 -6.984375 2.738281 -6.960938 2.5 -6.921875 C 2.4375 -6.910156 2.40625 -6.878906 2.40625 -6.828125 Z M 7.359375 -4.171875 C 7.359375 -2.785156 6.988281 -1.722656 6.25 -0.984375 C 5.507812 -0.253906 4.457031 0.109375 3.09375 0.109375 C 2.507812 0.109375 1.984375 0.0820312 1.515625 0.03125 C 1.328125 0.0078125 1.171875 -0.0664062 1.046875 -0.203125 C 0.929688 -0.335938 0.875 -0.5 0.875 -0.6875 L 0.875 -7.421875 C 0.875 -7.609375 0.929688 -7.769531 1.046875 -7.90625 C 1.171875 -8.039062 1.328125 -8.117188 1.515625 -8.140625 C 1.984375 -8.191406 2.507812 -8.21875 3.09375 -8.21875 C 4.445312 -8.21875 5.492188 -7.863281 6.234375 -7.15625 C 6.984375 -6.445312 7.359375 -5.453125 7.359375 -4.171875 Z M 7.359375 -4.171875" stroke-linecap="round" />
</g>
		<g transform="matrix(1.33 0 0 1.33 19.88 -61.69)" id="Xl8LrMDi5mjRqUiUN5iXD"  >
<path style="stroke: none; stroke-width: 1; stroke-dasharray: none; stroke-linecap: butt; stroke-dashoffset: 0; stroke-linejoin: miter; stroke-miterlimit: 4; fill: rgb(11,52,151); fill-rule: nonzero; opacity: 1;" vector-effect="non-scaling-stroke"  transform=" translate(-4.08, 4.05)" d="M 2.4375 -3.578125 L 2.4375 -0.640625 C 2.4375 -0.460938 2.375 -0.3125 2.25 -0.1875 C 2.125 -0.0625 1.972656 0 1.796875 0 L 1.515625 0 C 1.335938 0 1.1875 -0.0625 1.0625 -0.1875 C 0.9375 -0.3125 0.875 -0.460938 0.875 -0.640625 L 0.875 -7.484375 C 0.875 -7.648438 0.9375 -7.796875 1.0625 -7.921875 C 1.1875 -8.046875 1.335938 -8.109375 1.515625 -8.109375 L 1.796875 -8.109375 C 1.972656 -8.109375 2.125 -8.046875 2.25 -7.921875 C 2.375 -7.796875 2.4375 -7.648438 2.4375 -7.484375 L 2.4375 -4.953125 C 2.4375 -4.890625 2.46875 -4.859375 2.53125 -4.859375 L 5.625 -4.859375 C 5.695312 -4.859375 5.734375 -4.890625 5.734375 -4.953125 L 5.734375 -7.484375 C 5.734375 -7.648438 5.789062 -7.796875 5.90625 -7.921875 C 6.03125 -8.046875 6.179688 -8.109375 6.359375 -8.109375 L 6.65625 -8.109375 C 6.820312 -8.109375 6.96875 -8.046875 7.09375 -7.921875 C 7.21875 -7.796875 7.28125 -7.648438 7.28125 -7.484375 L 7.28125 -0.640625 C 7.28125 -0.460938 7.21875 -0.3125 7.09375 -0.1875 C 6.96875 -0.0625 6.820312 0 6.65625 0 L 6.359375 0 C 6.179688 0 6.03125 -0.0625 5.90625 -0.1875 C 5.789062 -0.3125 5.734375 -0.460938 5.734375 -0.640625 L 5.734375 -3.578125 C 5.734375 -3.640625 5.695312 -3.671875 5.625 -3.671875 L 2.53125 -3.671875 C 2.46875 -3.671875 2.4375 -3.640625 2.4375 -3.578125 Z M 2.4375 -3.578125" stroke-linecap="round" />
</g>
		<g transform="matrix(1.33 0 0 1.33 31.73 -61.69)" id="3A7LEvjXwYXqGOm7g-P_c"  >
<path style="stroke: none; stroke-width: 1; stroke-dasharray: none; stroke-linecap: butt; stroke-dashoffset: 0; stroke-linejoin: miter; stroke-miterlimit: 4; fill: rgb(11,52,151); fill-rule: nonzero; opacity: 1;" vector-effect="non-scaling-stroke"  transform=" translate(-3.79, 4.05)" d="M 3.75 -6.734375 L 2.703125 -3.234375 C 2.691406 -3.171875 2.71875 -3.140625 2.78125 -3.140625 L 4.75 -3.140625 C 4.8125 -3.140625 4.835938 -3.171875 4.828125 -3.234375 L 3.78125 -6.734375 C 3.78125 -6.742188 3.773438 -6.75 3.765625 -6.75 C 3.753906 -6.75 3.75 -6.742188 3.75 -6.734375 Z M 2.3125 -1.859375 L 1.9375 -0.59375 C 1.875 -0.414062 1.769531 -0.269531 1.625 -0.15625 C 1.476562 -0.0507812 1.3125 0 1.125 0 L 0.765625 0 C 0.609375 0 0.484375 -0.0625 0.390625 -0.1875 C 0.304688 -0.3125 0.289062 -0.445312 0.34375 -0.59375 L 2.75 -7.515625 C 2.800781 -7.691406 2.90625 -7.832031 3.0625 -7.9375 C 3.21875 -8.050781 3.394531 -8.109375 3.59375 -8.109375 L 3.984375 -8.109375 C 4.179688 -8.109375 4.359375 -8.050781 4.515625 -7.9375 C 4.671875 -7.832031 4.773438 -7.691406 4.828125 -7.515625 L 7.234375 -0.59375 C 7.285156 -0.445312 7.265625 -0.3125 7.171875 -0.1875 C 7.085938 -0.0625 6.96875 0 6.8125 0 L 6.40625 0 C 6.21875 0 6.050781 -0.0507812 5.90625 -0.15625 C 5.757812 -0.269531 5.65625 -0.414062 5.59375 -0.59375 L 5.21875 -1.859375 C 5.207031 -1.921875 5.164062 -1.953125 5.09375 -1.953125 L 2.4375 -1.953125 C 2.363281 -1.953125 2.320312 -1.921875 2.3125 -1.859375 Z M 2.3125 -1.859375" stroke-linecap="round" />
</g>
		<g transform="matrix(1.33 0 0 1.33 43.58 -61.69)" id="8VZMdzd1ekMTof4fEd2Sp"  >
<path style="stroke: none; stroke-width: 1; stroke-dasharray: none; stroke-linecap: butt; stroke-dashoffset: 0; stroke-linejoin: miter; stroke-miterlimit: 4; fill: rgb(11,52,151); fill-rule: nonzero; opacity: 1;" vector-effect="non-scaling-stroke"  transform=" translate(-4.08, 4.05)" d="M 2.40625 -5.515625 L 2.40625 -0.640625 C 2.40625 -0.460938 2.335938 -0.3125 2.203125 -0.1875 C 2.078125 -0.0625 1.929688 0 1.765625 0 L 1.515625 0 C 1.335938 0 1.1875 -0.0625 1.0625 -0.1875 C 0.9375 -0.3125 0.875 -0.460938 0.875 -0.640625 L 0.875 -7.484375 C 0.875 -7.648438 0.9375 -7.796875 1.0625 -7.921875 C 1.1875 -8.046875 1.335938 -8.109375 1.515625 -8.109375 L 1.765625 -8.109375 C 2.191406 -8.109375 2.507812 -7.929688 2.71875 -7.578125 L 5.734375 -2.59375 C 5.734375 -2.59375 5.738281 -2.59375 5.75 -2.59375 C 5.757812 -2.59375 5.765625 -2.59375 5.765625 -2.59375 L 5.765625 -7.484375 C 5.765625 -7.648438 5.820312 -7.796875 5.9375 -7.921875 C 6.0625 -8.046875 6.210938 -8.109375 6.390625 -8.109375 L 6.65625 -8.109375 C 6.820312 -8.109375 6.96875 -8.046875 7.09375 -7.921875 C 7.21875 -7.796875 7.28125 -7.648438 7.28125 -7.484375 L 7.28125 -0.640625 C 7.28125 -0.460938 7.21875 -0.3125 7.09375 -0.1875 C 6.96875 -0.0625 6.820312 0 6.65625 0 L 6.390625 0 C 5.960938 0 5.644531 -0.175781 5.4375 -0.53125 L 2.4375 -5.515625 C 2.4375 -5.515625 2.425781 -5.515625 2.40625 -5.515625 Z M 2.40625 -5.515625" stroke-linecap="round" />
</g>
		<g transform="matrix(1.33 0 0 1.33 55.88 -61.69)" id="uoJMNP9Bgm_u6Gj44qyoI"  >
<path style="stroke: none; stroke-width: 1; stroke-dasharray: none; stroke-linecap: butt; stroke-dashoffset: 0; stroke-linejoin: miter; stroke-miterlimit: 4; fill: rgb(11,52,151); fill-rule: nonzero; opacity: 1;" vector-effect="non-scaling-stroke"  transform=" translate(-4.12, 4.05)" d="M 2.40625 -6.828125 L 2.40625 -1.28125 C 2.40625 -1.226562 2.4375 -1.195312 2.5 -1.1875 C 2.738281 -1.15625 2.960938 -1.140625 3.171875 -1.140625 C 4.078125 -1.140625 4.753906 -1.382812 5.203125 -1.875 C 5.648438 -2.375 5.875 -3.140625 5.875 -4.171875 C 5.875 -6.046875 4.972656 -6.984375 3.171875 -6.984375 C 2.960938 -6.984375 2.738281 -6.960938 2.5 -6.921875 C 2.4375 -6.910156 2.40625 -6.878906 2.40625 -6.828125 Z M 7.359375 -4.171875 C 7.359375 -2.785156 6.988281 -1.722656 6.25 -0.984375 C 5.507812 -0.253906 4.457031 0.109375 3.09375 0.109375 C 2.507812 0.109375 1.984375 0.0820312 1.515625 0.03125 C 1.328125 0.0078125 1.171875 -0.0664062 1.046875 -0.203125 C 0.929688 -0.335938 0.875 -0.5 0.875 -0.6875 L 0.875 -7.421875 C 0.875 -7.609375 0.929688 -7.769531 1.046875 -7.90625 C 1.171875 -8.039062 1.328125 -8.117188 1.515625 -8.140625 C 1.984375 -8.191406 2.507812 -8.21875 3.09375 -8.21875 C 4.445312 -8.21875 5.492188 -7.863281 6.234375 -7.15625 C 6.984375 -6.445312 7.359375 -5.453125 7.359375 -4.171875 Z M 7.359375 -4.171875" stroke-linecap="round" />
</g>
		<g transform="matrix(1.33 0 0 1.33 62.88 -114.08)" id="HQ_Pojhf45znpA5Lji77o" clip-path="url(#CLIPPATH_9)"  >
<clipPath id="CLIPPATH_9" >
	<path transform="matrix(1 0 0 1 0 0) translate(-234.66, -101.94)" id="id1" d="M 224.910156 92.191406 L 244.410156 92.191406 L 244.410156 111.691406 L 224.910156 111.691406 Z M 224.910156 92.191406" stroke-linecap="round" />
</clipPath>
<path style="stroke: none; stroke-width: 1; stroke-dasharray: none; stroke-linecap: butt; stroke-dashoffset: 0; stroke-linejoin: miter; stroke-miterlimit: 4; fill: rgb(11,52,151); fill-rule: nonzero; opacity: 1;" vector-effect="non-scaling-stroke"  transform=" translate(-234.66, -101.94)" d="M 234.660156 111.691406 C 234.660156 106.324219 230.277344 101.941406 224.910156 101.941406 C 230.277344 101.941406 234.660156 97.554688 234.660156 92.191406 C 234.660156 97.554688 239.046875 101.941406 244.410156 101.941406 C 239.046875 101.941406 234.660156 106.324219 234.660156 111.691406 Z M 234.660156 111.691406" stroke-linecap="round" />
</g>
		<g transform="matrix(1.33 0 0 1.33 69.33 -94.68)" id="CTBzRt_S3hbRXoVmVpsKb" clip-path="url(#CLIPPATH_10)"  >
<clipPath id="CLIPPATH_10" >
	<path transform="matrix(1 0 0 1 0 0) translate(-239.5, -116.49)" id="id2" d="M 234.625 111.617188 L 244.375 111.617188 L 244.375 121.367188 L 234.625 121.367188 Z M 234.625 111.617188" stroke-linecap="round" />
</clipPath>
<path style="stroke: none; stroke-width: 1; stroke-dasharray: none; stroke-linecap: butt; stroke-dashoffset: 0; stroke-linejoin: miter; stroke-miterlimit: 4; fill: rgb(52,120,85); fill-rule: nonzero; opacity: 1;" vector-effect="non-scaling-stroke"  transform=" translate(-239.5, -116.49)" d="M 239.5 121.367188 C 239.5 118.683594 237.308594 116.492188 234.625 116.492188 C 237.308594 116.492188 239.5 114.300781 239.5 111.617188 C 239.5 114.300781 241.691406 116.492188 244.375 116.492188 C 241.691406 116.492188 239.5 118.683594 239.5 121.367188 Z M 239.5 121.367188" stroke-linecap="round" />
</g>
</g>
</g>
</svg>